<mxfile host="app.diagrams.net" modified="2023-11-29T14:35:51.667Z" agent="Mozilla/5.0 (Windows NT 10.0; Win64; x64) AppleWebKit/537.36 (KHTML, like Gecko) Chrome/119.0.0.0 Safari/537.36" etag="eUbGMEJNtaeVqsvP4I3-" version="22.1.4" type="device">
  <diagram name="Page-1" id="IPW8pOuw4DvIUizaTqhc">
    <mxGraphModel dx="2283" dy="593" grid="1" gridSize="10" guides="1" tooltips="1" connect="1" arrows="1" fold="1" page="1" pageScale="1" pageWidth="850" pageHeight="1100" math="0" shadow="0">
      <root>
        <mxCell id="0" />
        <mxCell id="1" parent="0" />
        <mxCell id="jM5wIbAw8bUpSAx-7QHz-1" value="&lt;b&gt;&lt;font face=&quot;Times New Roman&quot;&gt;Farmer Query&lt;/font&gt;&lt;/b&gt;" style="rounded=1;whiteSpace=wrap;html=1;fontSize=15;" parent="1" vertex="1">
          <mxGeometry x="-90" y="317.5" width="120" height="60" as="geometry" />
        </mxCell>
        <mxCell id="jM5wIbAw8bUpSAx-7QHz-7" value="&lt;font face=&quot;Times New Roman&quot; style=&quot;font-size: 14px;&quot;&gt;&lt;b&gt;User Interface&lt;/b&gt;&lt;/font&gt;" style="whiteSpace=wrap;html=1;aspect=fixed;" parent="1" vertex="1">
          <mxGeometry x="100" y="310" width="80" height="80" as="geometry" />
        </mxCell>
        <mxCell id="jM5wIbAw8bUpSAx-7QHz-13" value="&lt;font face=&quot;Times New Roman&quot; style=&quot;font-size: 14px;&quot;&gt;MACHINE LEARNING MODEL&lt;/font&gt;" style="whiteSpace=wrap;html=1;aspect=fixed;" parent="1" vertex="1">
          <mxGeometry x="250" y="290" width="120" height="120" as="geometry" />
        </mxCell>
        <mxCell id="jM5wIbAw8bUpSAx-7QHz-15" value="" style="endArrow=classic;html=1;rounded=0;" parent="1" edge="1">
          <mxGeometry relative="1" as="geometry">
            <mxPoint x="90" y="104.5" as="sourcePoint" />
            <mxPoint x="230" y="105" as="targetPoint" />
          </mxGeometry>
        </mxCell>
        <mxCell id="jM5wIbAw8bUpSAx-7QHz-16" value="Label" style="edgeLabel;resizable=0;html=1;align=center;verticalAlign=middle;" parent="jM5wIbAw8bUpSAx-7QHz-15" connectable="0" vertex="1">
          <mxGeometry relative="1" as="geometry" />
        </mxCell>
        <mxCell id="jM5wIbAw8bUpSAx-7QHz-17" value="&amp;nbsp;Pre Processing&amp;nbsp;" style="edgeLabel;html=1;align=center;verticalAlign=middle;resizable=0;points=[];" parent="jM5wIbAw8bUpSAx-7QHz-15" vertex="1" connectable="0">
          <mxGeometry x="0.0504" y="1" relative="1" as="geometry">
            <mxPoint as="offset" />
          </mxGeometry>
        </mxCell>
        <mxCell id="jM5wIbAw8bUpSAx-7QHz-18" value="&lt;font size=&quot;1&quot; face=&quot;Times New Roman&quot;&gt;&lt;b style=&quot;font-size: 14px;&quot;&gt;Normalized Data&lt;/b&gt;&lt;/font&gt;" style="rounded=0;whiteSpace=wrap;html=1;" parent="1" vertex="1">
          <mxGeometry x="235" y="85" width="165" height="40" as="geometry" />
        </mxCell>
        <mxCell id="jM5wIbAw8bUpSAx-7QHz-19" value="" style="endArrow=classic;html=1;rounded=0;" parent="1" edge="1">
          <mxGeometry relative="1" as="geometry">
            <mxPoint x="309.5" y="125" as="sourcePoint" />
            <mxPoint x="309.5" y="200" as="targetPoint" />
          </mxGeometry>
        </mxCell>
        <mxCell id="jM5wIbAw8bUpSAx-7QHz-20" value="Label" style="edgeLabel;resizable=0;html=1;align=center;verticalAlign=middle;" parent="jM5wIbAw8bUpSAx-7QHz-19" connectable="0" vertex="1">
          <mxGeometry relative="1" as="geometry" />
        </mxCell>
        <mxCell id="jM5wIbAw8bUpSAx-7QHz-21" value="&amp;nbsp;Training&amp;nbsp;" style="edgeLabel;html=1;align=center;verticalAlign=middle;resizable=0;points=[];" parent="jM5wIbAw8bUpSAx-7QHz-19" vertex="1" connectable="0">
          <mxGeometry x="-0.02" y="4" relative="1" as="geometry">
            <mxPoint x="-3" as="offset" />
          </mxGeometry>
        </mxCell>
        <mxCell id="jM5wIbAw8bUpSAx-7QHz-22" value="XG Boost algorithm" style="rhombus;whiteSpace=wrap;html=1;" parent="1" vertex="1">
          <mxGeometry x="245" y="200" width="130" height="50" as="geometry" />
        </mxCell>
        <mxCell id="jM5wIbAw8bUpSAx-7QHz-23" value="" style="shape=link;html=1;rounded=0;width=7;" parent="1" edge="1">
          <mxGeometry width="100" relative="1" as="geometry">
            <mxPoint x="309.69" y="250" as="sourcePoint" />
            <mxPoint x="309.69" y="290" as="targetPoint" />
          </mxGeometry>
        </mxCell>
        <mxCell id="jM5wIbAw8bUpSAx-7QHz-25" value="" style="endArrow=classic;startArrow=classic;html=1;rounded=0;" parent="1" edge="1">
          <mxGeometry width="50" height="50" relative="1" as="geometry">
            <mxPoint x="30" y="349.5" as="sourcePoint" />
            <mxPoint x="100" y="350" as="targetPoint" />
          </mxGeometry>
        </mxCell>
        <mxCell id="jM5wIbAw8bUpSAx-7QHz-28" value="" style="endArrow=classic;html=1;rounded=0;entryX=0;entryY=0.5;entryDx=0;entryDy=0;" parent="1" target="jM5wIbAw8bUpSAx-7QHz-31" edge="1">
          <mxGeometry relative="1" as="geometry">
            <mxPoint x="373" y="349.5" as="sourcePoint" />
            <mxPoint x="478" y="350" as="targetPoint" />
          </mxGeometry>
        </mxCell>
        <mxCell id="jM5wIbAw8bUpSAx-7QHz-29" value="" style="shape=message;html=1;outlineConnect=0;" parent="jM5wIbAw8bUpSAx-7QHz-28" vertex="1">
          <mxGeometry width="20" height="14" relative="1" as="geometry">
            <mxPoint x="-10" y="-7" as="offset" />
          </mxGeometry>
        </mxCell>
        <mxCell id="jM5wIbAw8bUpSAx-7QHz-30" value="Validate" style="text;html=1;align=center;verticalAlign=middle;resizable=0;points=[];autosize=1;strokeColor=none;fillColor=none;" parent="1" vertex="1">
          <mxGeometry x="400" y="320" width="70" height="30" as="geometry" />
        </mxCell>
        <mxCell id="jM5wIbAw8bUpSAx-7QHz-31" value="" style="whiteSpace=wrap;html=1;aspect=fixed;" parent="1" vertex="1">
          <mxGeometry x="490" y="180" width="340" height="340" as="geometry" />
        </mxCell>
        <mxCell id="jM5wIbAw8bUpSAx-7QHz-33" value="&lt;font face=&quot;Times New Roman&quot; style=&quot;font-size: 16px;&quot;&gt;&lt;b&gt;Boosting Technique&lt;/b&gt;&lt;/font&gt;" style="text;html=1;align=center;verticalAlign=middle;resizable=0;points=[];autosize=1;strokeColor=none;fillColor=none;" parent="1" vertex="1">
          <mxGeometry x="580" y="150" width="160" height="30" as="geometry" />
        </mxCell>
        <mxCell id="jM5wIbAw8bUpSAx-7QHz-39" value="&lt;b&gt;&lt;font style=&quot;font-size: 14px;&quot; face=&quot;Times New Roman&quot;&gt;Tree 1&lt;/font&gt;&lt;/b&gt;" style="shape=parallelogram;perimeter=parallelogramPerimeter;whiteSpace=wrap;html=1;fixedSize=1;" parent="1" vertex="1">
          <mxGeometry x="500" y="360" width="80" height="40" as="geometry" />
        </mxCell>
        <mxCell id="jM5wIbAw8bUpSAx-7QHz-43" value="&lt;b&gt;W1&lt;/b&gt;" style="text;html=1;strokeColor=none;fillColor=none;align=center;verticalAlign=middle;whiteSpace=wrap;rounded=0;rotation=0;" parent="1" vertex="1">
          <mxGeometry x="515" y="460" width="50" height="20" as="geometry" />
        </mxCell>
        <mxCell id="jM5wIbAw8bUpSAx-7QHz-44" value="&lt;b&gt;&lt;font style=&quot;font-size: 14px;&quot; face=&quot;Times New Roman&quot;&gt;Data 2&lt;/font&gt;&lt;/b&gt;" style="ellipse;whiteSpace=wrap;html=1;aspect=fixed;" parent="1" vertex="1">
          <mxGeometry x="630" y="220" width="60" height="60" as="geometry" />
        </mxCell>
        <mxCell id="jM5wIbAw8bUpSAx-7QHz-45" value="" style="shape=flexArrow;endArrow=classic;html=1;rounded=0;" parent="1" edge="1">
          <mxGeometry width="50" height="50" relative="1" as="geometry">
            <mxPoint x="580" y="340" as="sourcePoint" />
            <mxPoint x="630" y="290" as="targetPoint" />
          </mxGeometry>
        </mxCell>
        <mxCell id="jM5wIbAw8bUpSAx-7QHz-48" value="" style="endArrow=classic;html=1;rounded=0;" parent="1" edge="1">
          <mxGeometry relative="1" as="geometry">
            <mxPoint x="539.5" y="280" as="sourcePoint" />
            <mxPoint x="540" y="350" as="targetPoint" />
          </mxGeometry>
        </mxCell>
        <mxCell id="jM5wIbAw8bUpSAx-7QHz-49" value="Label" style="edgeLabel;resizable=0;html=1;align=center;verticalAlign=middle;" parent="jM5wIbAw8bUpSAx-7QHz-48" connectable="0" vertex="1">
          <mxGeometry relative="1" as="geometry" />
        </mxCell>
        <mxCell id="jM5wIbAw8bUpSAx-7QHz-50" value="&amp;nbsp;Train&amp;nbsp;" style="edgeLabel;html=1;align=center;verticalAlign=middle;resizable=0;points=[];" parent="jM5wIbAw8bUpSAx-7QHz-48" vertex="1" connectable="0">
          <mxGeometry x="0.0667" y="2" relative="1" as="geometry">
            <mxPoint as="offset" />
          </mxGeometry>
        </mxCell>
        <mxCell id="jM5wIbAw8bUpSAx-7QHz-52" value="" style="endArrow=classic;html=1;rounded=0;" parent="1" edge="1">
          <mxGeometry width="50" height="50" relative="1" as="geometry">
            <mxPoint x="539.5" y="400" as="sourcePoint" />
            <mxPoint x="540" y="460" as="targetPoint" />
          </mxGeometry>
        </mxCell>
        <mxCell id="jM5wIbAw8bUpSAx-7QHz-53" value="Test" style="text;html=1;strokeColor=none;fillColor=none;align=center;verticalAlign=middle;whiteSpace=wrap;rounded=0;rotation=-45;" parent="1" vertex="1">
          <mxGeometry x="565" y="300" width="50" height="20" as="geometry" />
        </mxCell>
        <mxCell id="jM5wIbAw8bUpSAx-7QHz-61" value="" style="endArrow=classic;html=1;rounded=0;" parent="1" edge="1">
          <mxGeometry width="50" height="50" relative="1" as="geometry">
            <mxPoint x="659.5" y="400" as="sourcePoint" />
            <mxPoint x="660" y="460" as="targetPoint" />
          </mxGeometry>
        </mxCell>
        <mxCell id="jM5wIbAw8bUpSAx-7QHz-62" value="" style="endArrow=classic;html=1;rounded=0;" parent="1" edge="1">
          <mxGeometry relative="1" as="geometry">
            <mxPoint x="659.5" y="280" as="sourcePoint" />
            <mxPoint x="660" y="350" as="targetPoint" />
          </mxGeometry>
        </mxCell>
        <mxCell id="jM5wIbAw8bUpSAx-7QHz-63" value="Label" style="edgeLabel;resizable=0;html=1;align=center;verticalAlign=middle;" parent="jM5wIbAw8bUpSAx-7QHz-62" connectable="0" vertex="1">
          <mxGeometry relative="1" as="geometry" />
        </mxCell>
        <mxCell id="jM5wIbAw8bUpSAx-7QHz-64" value="&amp;nbsp;Train&amp;nbsp;" style="edgeLabel;html=1;align=center;verticalAlign=middle;resizable=0;points=[];" parent="jM5wIbAw8bUpSAx-7QHz-62" vertex="1" connectable="0">
          <mxGeometry x="0.0667" y="2" relative="1" as="geometry">
            <mxPoint as="offset" />
          </mxGeometry>
        </mxCell>
        <mxCell id="jM5wIbAw8bUpSAx-7QHz-65" value="&lt;font face=&quot;Times New Roman&quot; style=&quot;font-size: 14px;&quot;&gt;&lt;b&gt;Tree 2&lt;/b&gt;&lt;/font&gt;" style="shape=parallelogram;perimeter=parallelogramPerimeter;whiteSpace=wrap;html=1;fixedSize=1;" parent="1" vertex="1">
          <mxGeometry x="620" y="360" width="80" height="40" as="geometry" />
        </mxCell>
        <mxCell id="jM5wIbAw8bUpSAx-7QHz-66" value="&lt;b&gt;&lt;font style=&quot;font-size: 14px;&quot; face=&quot;Times New Roman&quot;&gt;Data 1&lt;/font&gt;&lt;/b&gt;" style="ellipse;whiteSpace=wrap;html=1;aspect=fixed;" parent="1" vertex="1">
          <mxGeometry x="510" y="220" width="60" height="60" as="geometry" />
        </mxCell>
        <mxCell id="jM5wIbAw8bUpSAx-7QHz-68" value="&lt;b&gt;&lt;font style=&quot;font-size: 13px;&quot;&gt;W2&lt;/font&gt;&lt;/b&gt;" style="text;html=1;strokeColor=none;fillColor=none;align=center;verticalAlign=middle;whiteSpace=wrap;rounded=0;" parent="1" vertex="1">
          <mxGeometry x="635" y="460" width="50" height="20" as="geometry" />
        </mxCell>
        <mxCell id="jM5wIbAw8bUpSAx-7QHz-69" value="" style="shape=flexArrow;endArrow=classic;html=1;rounded=0;" parent="1" edge="1">
          <mxGeometry width="50" height="50" relative="1" as="geometry">
            <mxPoint x="700" y="335" as="sourcePoint" />
            <mxPoint x="750" y="285" as="targetPoint" />
          </mxGeometry>
        </mxCell>
        <mxCell id="jM5wIbAw8bUpSAx-7QHz-70" value="&lt;b&gt;&lt;font style=&quot;font-size: 14px;&quot; face=&quot;Times New Roman&quot;&gt;Data 3&lt;/font&gt;&lt;/b&gt;" style="ellipse;whiteSpace=wrap;html=1;aspect=fixed;" parent="1" vertex="1">
          <mxGeometry x="740" y="220" width="60" height="60" as="geometry" />
        </mxCell>
        <mxCell id="jM5wIbAw8bUpSAx-7QHz-71" value="Test" style="text;strokeColor=none;fillColor=none;align=center;verticalAlign=middle;whiteSpace=wrap;rounded=0;rotation=-45;" parent="1" vertex="1">
          <mxGeometry x="684.9987373415291" y="289.99873734152914" width="50" height="20" as="geometry" />
        </mxCell>
        <mxCell id="jM5wIbAw8bUpSAx-7QHz-73" value="" style="endArrow=classic;html=1;rounded=0;" parent="1" edge="1">
          <mxGeometry relative="1" as="geometry">
            <mxPoint x="769.5" y="280" as="sourcePoint" />
            <mxPoint x="770" y="350" as="targetPoint" />
          </mxGeometry>
        </mxCell>
        <mxCell id="jM5wIbAw8bUpSAx-7QHz-74" value="Label" style="edgeLabel;resizable=0;html=1;align=center;verticalAlign=middle;" parent="jM5wIbAw8bUpSAx-7QHz-73" connectable="0" vertex="1">
          <mxGeometry relative="1" as="geometry" />
        </mxCell>
        <mxCell id="jM5wIbAw8bUpSAx-7QHz-75" value="&amp;nbsp;Train&amp;nbsp;" style="edgeLabel;html=1;align=center;verticalAlign=middle;resizable=0;points=[];" parent="jM5wIbAw8bUpSAx-7QHz-73" vertex="1" connectable="0">
          <mxGeometry x="0.0667" y="2" relative="1" as="geometry">
            <mxPoint as="offset" />
          </mxGeometry>
        </mxCell>
        <mxCell id="jM5wIbAw8bUpSAx-7QHz-76" value="&lt;font size=&quot;1&quot; face=&quot;Times New Roman&quot;&gt;&lt;b style=&quot;font-size: 14px;&quot;&gt;Tree 3&lt;/b&gt;&lt;/font&gt;" style="shape=parallelogram;perimeter=parallelogramPerimeter;whiteSpace=wrap;html=1;fixedSize=1;" parent="1" vertex="1">
          <mxGeometry x="730" y="360" width="80" height="40" as="geometry" />
        </mxCell>
        <mxCell id="jM5wIbAw8bUpSAx-7QHz-77" value="" style="endArrow=classic;html=1;rounded=0;" parent="1" edge="1">
          <mxGeometry width="50" height="50" relative="1" as="geometry">
            <mxPoint x="769.5" y="400" as="sourcePoint" />
            <mxPoint x="770" y="460" as="targetPoint" />
          </mxGeometry>
        </mxCell>
        <mxCell id="jM5wIbAw8bUpSAx-7QHz-79" value="&lt;b&gt;&lt;font style=&quot;font-size: 13px;&quot;&gt;W3&lt;/font&gt;&lt;/b&gt;" style="text;html=1;strokeColor=none;fillColor=none;align=center;verticalAlign=middle;whiteSpace=wrap;rounded=0;" parent="1" vertex="1">
          <mxGeometry x="745" y="460" width="50" height="20" as="geometry" />
        </mxCell>
        <mxCell id="jM5wIbAw8bUpSAx-7QHz-80" value="" style="endArrow=classic;html=1;rounded=0;entryX=1;entryY=0.5;entryDx=0;entryDy=0;" parent="1" target="jM5wIbAw8bUpSAx-7QHz-83" edge="1">
          <mxGeometry relative="1" as="geometry">
            <mxPoint x="490" y="490" as="sourcePoint" />
            <mxPoint x="380" y="490" as="targetPoint" />
          </mxGeometry>
        </mxCell>
        <mxCell id="jM5wIbAw8bUpSAx-7QHz-83" value="&lt;font style=&quot;font-size: 14px;&quot;&gt;Ensemble Prediction&lt;/font&gt;" style="shape=hexagon;perimeter=hexagonPerimeter2;whiteSpace=wrap;html=1;fixedSize=1;" parent="1" vertex="1">
          <mxGeometry x="250" y="450" width="120" height="80" as="geometry" />
        </mxCell>
        <mxCell id="jM5wIbAw8bUpSAx-7QHz-84" value="" style="endArrow=classic;html=1;rounded=0;" parent="1" edge="1">
          <mxGeometry width="50" height="50" relative="1" as="geometry">
            <mxPoint x="309.5" y="450" as="sourcePoint" />
            <mxPoint x="309.5" y="410" as="targetPoint" />
          </mxGeometry>
        </mxCell>
        <mxCell id="jM5wIbAw8bUpSAx-7QHz-85" value="" style="endArrow=classic;startArrow=classic;html=1;rounded=0;entryX=0;entryY=0.5;entryDx=0;entryDy=0;" parent="1" target="jM5wIbAw8bUpSAx-7QHz-13" edge="1">
          <mxGeometry width="50" height="50" relative="1" as="geometry">
            <mxPoint x="180" y="350" as="sourcePoint" />
            <mxPoint x="240" y="347" as="targetPoint" />
          </mxGeometry>
        </mxCell>
        <mxCell id="jM5wIbAw8bUpSAx-7QHz-86" value="Request" style="text;html=1;strokeColor=none;fillColor=none;align=center;verticalAlign=middle;whiteSpace=wrap;rounded=0;" parent="1" vertex="1">
          <mxGeometry x="50" y="330" width="40" height="10" as="geometry" />
        </mxCell>
        <mxCell id="jM5wIbAw8bUpSAx-7QHz-87" value="Response" style="text;html=1;strokeColor=none;fillColor=none;align=center;verticalAlign=middle;whiteSpace=wrap;rounded=0;" parent="1" vertex="1">
          <mxGeometry x="50" y="355" width="40" height="25" as="geometry" />
        </mxCell>
        <mxCell id="jM5wIbAw8bUpSAx-7QHz-89" value="I/P" style="text;html=1;strokeColor=none;fillColor=none;align=center;verticalAlign=middle;whiteSpace=wrap;rounded=0;" parent="1" vertex="1">
          <mxGeometry x="195" y="325" width="40" height="20" as="geometry" />
        </mxCell>
        <mxCell id="jM5wIbAw8bUpSAx-7QHz-90" value="O/P" style="text;html=1;strokeColor=none;fillColor=none;align=center;verticalAlign=middle;whiteSpace=wrap;rounded=0;" parent="1" vertex="1">
          <mxGeometry x="195" y="357.5" width="40" height="20" as="geometry" />
        </mxCell>
        <mxCell id="hN-RNggsE1yZdYFDovAl-2" value="&lt;b&gt;&lt;font style=&quot;font-size: 14px;&quot; face=&quot;Times New Roman&quot;&gt;Data Source&lt;/font&gt;&lt;/b&gt;" style="shape=internalStorage;whiteSpace=wrap;html=1;backgroundOutline=1;" vertex="1" parent="1">
          <mxGeometry x="-40" y="65" width="130" height="80" as="geometry" />
        </mxCell>
        <mxCell id="hN-RNggsE1yZdYFDovAl-4" value="&lt;div style=&quot;&quot;&gt;&lt;b&gt;&lt;font face=&quot;Times New Roman&quot;&gt;&lt;span style=&quot;background-color: initial; white-space: pre;&quot;&gt;&#x9;&lt;/span&gt;&lt;span style=&quot;background-color: initial;&quot;&gt;DATA STORAGE&amp;nbsp;&lt;/span&gt;&lt;/font&gt;&lt;/b&gt;&lt;/div&gt;" style="shape=dataStorage;whiteSpace=wrap;html=1;fixedSize=1;size=15;align=left;" vertex="1" parent="1">
          <mxGeometry x="50" y="450" width="155" height="80" as="geometry" />
        </mxCell>
        <mxCell id="hN-RNggsE1yZdYFDovAl-8" value="&lt;h1 style=&quot;&quot;&gt;Architecture&lt;br&gt;&lt;/h1&gt;" style="text;html=1;strokeColor=none;fillColor=none;spacing=5;spacingTop=-20;whiteSpace=wrap;overflow=hidden;rounded=0;align=center;" vertex="1" parent="1">
          <mxGeometry x="95" y="10" width="520" height="50" as="geometry" />
        </mxCell>
        <mxCell id="hN-RNggsE1yZdYFDovAl-12" value="" style="endArrow=classic;html=1;rounded=0;exitX=0.25;exitY=1;exitDx=0;exitDy=0;" edge="1" parent="1">
          <mxGeometry width="50" height="50" relative="1" as="geometry">
            <mxPoint x="139.73" y="390" as="sourcePoint" />
            <mxPoint x="139.73" y="450" as="targetPoint" />
          </mxGeometry>
        </mxCell>
      </root>
    </mxGraphModel>
  </diagram>
</mxfile>
